<svg width="180" height="180" viewBox="0 0 66.56 66.56" xmlns="http://www.w3.org/2000/svg"><path style="fill:#6d840d;fill-opacity:1;stroke-width:.0854429" d="M32.504 24.391c-1.311-.098-1.387-.212-.929-1.391.143-.368.41-1.258.594-1.98.411-1.617.526-1.9.813-2.01.29-.11.948-.108 1.156.003.245.13.316.313.587 1.51.136.601.404 1.53.595 2.061.19.532.357 1.108.37 1.28.023.289.003.319-.274.409-.405.132-1.912.193-2.912.118zM37.566 23.468c-.58-.58-1.5-3.67-1.342-4.511.047-.248.103-.298.456-.404.221-.067.96-.295 1.641-.506.682-.212 1.393-.41 1.581-.44l.343-.056.7 1.264c.824 1.49 1.136 2.168 1.136 2.476 0 .381-.557.8-2.074 1.563-1.597.802-2.121.934-2.441.614zM35.968 16.222c.067-.915.22-1.748.468-2.553.453-1.47 1.31-3.32 2.095-4.53.464-.714 1.488-1.959 1.555-1.891.022.021-.02.225-.093.454-.211.668-.298 1.622-.39 4.303a147.465 147.465 0 0 1-.136 3.222l-.05.701-.462.173c-.254.095-.972.329-1.595.52l-1.293.394c-.152.047-.157.006-.099-.793zM41.305 14.385c-.248-.464-.241-3.042.012-4.692.119-.77.573-2.38.931-3.297.486-1.246 1-1.74 2.35-2.263.915-.354 1.28-.4 1.51-.193.27.244.58.917.77 1.668.15.589.159.752.076 1.287-.338 2.177-2.107 5.097-4.093 6.755-1.17.976-1.375 1.073-1.556.735zM43.325 19.65c-.372-.402-1.565-2.943-1.46-3.112.024-.041.497-.42 1.049-.842.957-.733 2.358-2.085 3.039-2.932.174-.217.664-.91 1.088-1.538.71-1.053.768-1.117.725-.802l-.179 1.358c-.262 2.002-1.015 4.268-1.899 5.709-.756 1.233-1.768 2.374-2.105 2.374-.032 0-.148-.097-.258-.216zM48.8 24.63c-.876-.43-1.593-.814-1.593-.853 0-.15.756-.886 1.406-1.37 1.297-.965 3.995-2.129 5.771-2.489.353-.071 1.103-.153 1.667-.183l1.025-.053-.59.37c-1.27.794-2.044 1.452-3.853 3.275-1.034 1.042-1.961 1.938-2.06 1.99-.156.082-.41-.016-1.774-.686zM41.354 28.224c-.506-.42-2.862-2.736-2.862-2.813 0-.03.317-.197.705-.373.892-.404 2.865-1.465 3.568-1.92.296-.191.605-.347.687-.347.202 0 1.021.908 1.021 1.131 0 .098-.207.527-.46.954a35.37 35.37 0 0 0-.994 1.845c-.589 1.179-1.018 1.88-1.15 1.88-.048-.001-.28-.161-.515-.357zM46.728 30.93c-.798-.236-2.354-.811-2.752-1.017-.237-.123-.272-.184-.272-.485 0-.445.427-1.47 1.154-2.77.854-1.526.997-1.761 1.056-1.734.201.094 3.905 1.974 3.928 1.994.042.037-.283 1.21-.682 2.46-.286.897-.408 1.158-.668 1.431-.279.293-.365.334-.695.33-.207-.002-.688-.096-1.069-.21zM50.482 30.897c.065-.618.662-2.466.964-2.98.22-.376.223-.377.618-.332 2.722.309 5.808.224 7.346-.202.336-.093.64-.17.674-.17.034 0-.167.233-.448.517-.983.997-3.04 2.14-5.07 2.82-1.13.377-3.233.85-3.782.85h-.354zM54.299 26.228c-.933-.121-1.6-.274-1.667-.383-.119-.192 1.757-2.175 3.062-3.236 1.398-1.137 4.028-2.402 4.993-2.402.683 0 2.864.853 2.985 1.167.053.138-.178.838-.535 1.625-.312.688-.833 1.303-1.37 1.618-.911.534-2.543 1.066-4.392 1.431-1.436.284-2.015.318-3.076.18zM43.132 36.078c-.038-.058-.08-1.14-.095-2.403-.022-1.867-.006-2.29.085-2.255 1.57.584 4.374 1.432 4.734 1.433.325 0 .474.275.478.877.005.903-.008.913-1.896 1.434-.54.149-1.462.44-2.047.646-1.196.421-1.164.414-1.259.268zM28.656 23.589c-.856-.355-2.84-1.409-3.28-1.74-.293-.222-.435-.394-.453-.55-.057-.487.95-2.416 1.695-3.248.39-.435.392-.436.728-.346.55.146 3.582 1.067 3.614 1.096.061.056-.361 1.743-.684 2.73-.33 1.011-.888 2.191-1.055 2.235-.047.012-.301-.067-.565-.177zM29.179 16.525a224.71 224.71 0 0 0-1.773-.613c-.153-.05-.278-.138-.278-.195 0-.058.083-.484.185-.947.156-.707.186-1.118.187-2.552.002-1.897-.138-3.073-.497-4.2-.358-1.12-.28-1.156.475-.221 1.923 2.384 3.08 5.015 3.452 7.856.115.874.095 1.21-.078 1.327-.131.09-.036.115-1.673-.455zM24.601 14.07c-1.834-1.63-2.93-3.014-3.833-4.842-1.05-2.125-1.12-2.607-.567-3.939.406-.978.773-1.487 1.071-1.487.29 0 1.323.33 1.67.534.459.27 1.012.824 1.374 1.376 1.188 1.81 1.893 6.053 1.378 8.286-.095.414-.19.77-.21.79-.02.02-.417-.304-.883-.718zM22.755 19.55c-1.782-2.366-2.693-4.29-3.192-6.744-.236-1.163-.275-1.912-.099-1.912.157 0 .544.433 1.164 1.305.656.921 1.665 1.997 2.748 2.93.94.81 1.32 1.178 1.501 1.455.118.18.103.257-.188.99-.31.785-1.042 2.282-1.257 2.576-.1.137-.166.078-.677-.6zM15.478 24.415c-2.116-2.23-2.999-3.017-4.573-4.08l-.886-.598.326-.027c1.382-.117 4.13.614 6.19 1.647.924.463 2.326 1.369 2.776 1.793.425.401.382.603-.215 1.006-.402.272-2.451 1.263-2.61 1.263-.03 0-.484-.452-1.008-1.004zM9.655 26.098c-1.729-.31-3.095-.736-4.036-1.257-.644-.356-1.392-1.168-1.792-1.942-.776-1.508-.672-1.671 1.61-2.522l1.078-.402 1.701.864c2.545 1.292 3.288 1.84 5.16 3.806l1.185 1.244-.787.152c-1.229.237-2.982.262-4.119.057zM14.863 31.231c-2.269-.407-4.735-1.422-6.486-2.668-.766-.544-1.423-1.19-1.265-1.242.05-.017.316.027.591.097.836.215 2.516.317 5.028.305a222.53 222.53 0 0 1 2.501-.004c.196.013.62.803.876 1.63.313 1.016.495 1.805.447 1.944-.05.148-.65.126-1.692-.061zM18.474 31.17c-.06-.102-1.058-3.171-1.17-3.599a7.222 7.222 0 0 0-.14-.482c-.03-.079.563-.424 1.9-1.106 1.07-.545 1.971-.991 2.004-.991.093 0 1.307 2.088 1.753 3.014.245.51.418.997.442 1.249.037.389.023.425-.248.627-.514.384-2.256.97-3.491 1.175-.306.051-.658.113-.783.137-.124.025-.245.014-.267-.024zM24.914 28.315c-.108-.145-.56-.943-1.006-1.772-.446-.83-.964-1.713-1.152-1.963-.422-.56-.405-.646.268-1.375l.506-.548.624.43c.868.597 1.975 1.207 3.23 1.78.588.267 1.083.5 1.1.516.114.105-3.06 3.198-3.281 3.198-.051 0-.182-.12-.29-.266zM22.728 35.84a18.442 18.442 0 0 0-2.094-.68c-2.01-.497-2.136-.578-2.136-1.387 0-.49.167-.704.706-.904.745-.278 4.488-1.238 4.622-1.186.19.073.259 1.003.196 2.665-.054 1.435-.11 1.928-.215 1.916a25.01 25.01 0 0 1-1.08-.423zM20.378 42.33c-.211-.095-.99-.505-1.73-.91-1.068-.585-1.346-.774-1.345-.914 0-.335 1.008-3.996 1.131-4.114.051-.048 1.44.235 2.136.435.97.28 2.245.828 2.518 1.083.177.165.204.253.166.54-.054.414-1.08 2.484-1.683 3.396-.49.74-.562.77-1.193.484zM7.035 40.22c1.237-1.737 7.168-4.208 9.191-3.829.28.053.307.083.307.344 0 .348-.244 1.166-.692 2.32l-.335.862-2.883.055c-3.568.068-4.895.177-5.639.463-.109.042-.098-.006.05-.214zM5.767 47.37c-.643-.118-1.803-.615-2.116-.908-.264-.246-.29-.31-.239-.58.078-.413.6-1.618.914-2.108.453-.708 1.703-1.326 3.492-1.724 2.682-.598 6.195-.742 6.38-.262.117.305-.758 1.363-2.05 2.478-1.59 1.371-3.19 2.365-4.629 2.876-.72.255-1.236.322-1.752.228zM10.724 47.493c2.021-1.377 3.102-2.355 4.617-4.179.525-.631.99-1.148 1.032-1.148.043 0 .51.216 1.037.48 1.179.589 2.028 1.176 2.028 1.4 0 .58-3.128 2.576-4.998 3.19-.865.285-2.35.617-3.29.736-.4.051-.88.115-1.068.142-.32.045-.278.005.642-.621zM22.938 44.504c-.309-.289-.424-.46-.424-.63 0-.27.295-.865 1.215-2.448.65-1.119.946-1.738 1.044-2.186.105-.481.388-.285 2.206 1.532.787.786 1.43 1.451 1.43 1.478 0 .027-.659.374-1.465.772-1.519.75-2.306 1.212-2.788 1.633-.418.365-.705.33-1.218-.151zM26.47 49.835c-.317-.793-.964-2.022-1.405-2.67a48.632 48.632 0 0 1-.526-.783c-.142-.233 4.708-2.73 4.909-2.528.12.121.68 1.661.886 2.441.251.951.498 2.542.406 2.626-.075.07-3.889 1.277-4.032 1.277-.052 0-.16-.164-.239-.363zM19.379 56.2c.074-1.451.447-2.835 1.257-4.66a16.1 16.1 0 0 1 .866-1.652c.458-.732 1.727-2.339 1.847-2.339.07 0 1.004 1.524 1.308 2.136.23.464.245.963.04 1.367-.084.165-.929 1.087-1.877 2.05-1.732 1.76-2.122 2.217-2.943 3.44-.244.364-.468.662-.497.662-.029 0-.03-.452-.001-1.004zM20.86 63.918c-.18-.275-.687-1.512-.858-2.094-.27-.919-.162-1.414.674-3.082.8-1.595 2.146-3.457 3.465-4.793.354-.359.775-.72.935-.803.284-.146.294-.146.438.033.234.288.333.95.33 2.214a16.086 16.086 0 0 1-.469 3.848c-.518 2.153-1.358 3.48-2.601 4.114-.356.18-1.696.77-1.753.77-.014 0-.086-.093-.16-.207zM26.872 60.393c0-.052.078-.473.174-.937.577-2.797.638-4.078.294-6.176-.119-.722-.205-1.32-.192-1.33.09-.068 2.058-.818 2.338-.891.664-.174 1.263-.265 1.417-.216.21.067.204.5-.02 1.602-.427 2.094-1.524 4.8-2.604 6.425-.445.669-1.407 1.71-1.407 1.523zM32.831 48.657c-.244-.15-.37-.48-.83-2.18-.241-.89-.514-1.866-.606-2.167-.154-.5-.156-.56-.033-.696.412-.455 3.661-.492 4.268-.048.143.104.14.145-.07.786a64.74 64.74 0 0 0-.613 2.073c-.442 1.58-.62 1.987-.93 2.129-.326.148-1.014.208-1.186.103zM39.517 49.929c-.211-.095-.976-.324-1.7-.51-1.5-.387-1.611-.434-1.68-.707-.065-.26.207-1.391.653-2.712.599-1.779.828-2.109 1.387-1.996.53.107 3.072 1.435 3.465 1.811.359.343.374.378.332.748-.095.849-1.635 3.574-2.002 3.543a3.289 3.289 0 0 1-.455-.177zM39.479 59.79c-1.63-1.846-2.526-3.677-3.172-6.474-.259-1.122-.367-2.336-.217-2.429.17-.105 1.045.07 2.318.462.665.204 1.228.391 1.253.416.024.024-.003.81-.061 1.744a41.23 41.23 0 0 0-.06 3.146c.04 1.284.079 1.58.346 2.642.166.658.29 1.206.278 1.22-.013.012-.322-.314-.685-.726zM44.59 63.533c-1.394-.689-1.682-.955-2.172-2.006-.592-1.27-.929-2.58-1.15-4.477-.218-1.86-.15-3.448.158-3.757.233-.232.557-.033 1.61.987 1.494 1.45 2.436 2.707 3.268 4.364.77 1.534.904 2.35.566 3.442-.309.995-.831 2.039-1.02 2.039-.036 0-.603-.266-1.26-.592zM47.016 56.378c-1.305-1.902-3.2-3.873-4.7-4.889-.317-.214-.406-.325-.406-.505 0-.26.928-2.218 1.404-2.962l.312-.488.23.15c.843.553 2.396 3.401 3.21 5.889.356 1.09.71 3.045.6 3.328-.088.23-.19.148-.65-.523zM43.202 44.84c-.064-.025-.43-.257-.811-.515-.382-.258-1.398-.811-2.258-1.23l-1.563-.762.367-.531c.202-.292.636-.801.965-1.131.6-.602 2.093-1.805 2.093-1.687 0 .122 1.787 3.44 2.174 4.037.214.332.39.673.39.76 0 .192-.445.763-.754.967-.232.153-.39.177-.603.092zM45.46 41.931c-.503-.71-1.612-2.85-1.744-3.368-.06-.234-.05-.357.037-.482.29-.414 2.654-1.337 4.01-1.565.376-.064.715-.116.754-.116.092-.002 1.195 3.594 1.204 3.922.006.214-.07.301-.522.605-.685.46-2.949 1.666-3.13 1.666-.076 0-.35-.298-.609-.662zM54.683 47.802c-1.884-.393-3.456-.937-4.447-1.541-1.086-.663-2.092-1.385-2.637-1.894-.424-.396-.43-.409-.264-.541.506-.402 3-1.493 3.393-1.485.147.003.401.264 1.008 1.036a17.826 17.826 0 0 0 3.665 3.482c.6.426 1.18.871 1.29.989l.201.214-.506-.006c-.279-.003-1.045-.117-1.703-.254zM58.785 40.198c-1.035-.24-2.843-.353-5.2-.323l-2.125.027-.414-1.172c-.529-1.5-.678-2.18-.503-2.299.46-.313 4.327.59 5.896 1.378 1.332.669 3.228 1.968 3.479 2.384.1.167.089.178-.171.171-.153-.004-.586-.079-.962-.166zM59.19 47.002c-.623-.253-1.397-.617-1.72-.808-1.064-.633-2.489-1.741-3.63-2.825-.492-.468-1.25-1.408-1.25-1.55 0-.19.792-.29 2.307-.289 1.858.001 2.946.12 4.279.47 2.14.562 3.251 1.396 4.085 3.065.244.49.433.971.42 1.068-.056.387-2.18 1.331-2.992 1.33-.245 0-.741-.153-1.5-.46z"/><path style="fill:#5a6f08;fill-opacity:1;stroke-width:.0854429" d="M32.66 9.007c-1.08-.255-2.251-1.393-2.59-2.517-.54-1.793.827-3.948 2.728-4.301.65-.12 1.539.026 2.234.368 1.828.9 2.501 2.922 1.56 4.689-.703 1.318-2.464 2.107-3.932 1.76zM4.494 37.17c-1.08-.255-2.252-1.394-2.59-2.517-.54-1.794.827-3.949 2.728-4.302.649-.12 1.539.026 2.233.368 1.83.9 2.502 2.922 1.56 4.69-.702 1.318-2.463 2.106-3.931 1.76zM12.52 17.292c-.848-.257-1.97-1.44-2.315-2.44-.613-1.784.388-3.662 2.256-4.23.473-.143.735-.17 1.333-.135 1.008.057 1.64.34 2.265 1.015.678.733.854 1.239.857 2.468.002.917-.014 1.013-.242 1.445-.34.648-1.013 1.288-1.713 1.633-.52.256-.68.293-1.367.312-.428.012-.91-.019-1.073-.068zM12.774 57.214c-1.507-.488-2.38-1.366-2.66-2.676-.259-1.202.362-2.858 1.355-3.616 1.248-.953 3.108-.823 4.327.3.843.777 1.2 1.677 1.15 2.892-.024.571-.081.848-.25 1.21-.404.864-1.313 1.546-2.55 1.913-.577.172-.78.168-1.372-.023zM32.563 65.399c-1.032-.355-1.846-1.057-2.26-1.947-.457-.982-.313-2.476.332-3.45.95-1.435 3.118-1.866 4.61-.916 1.21.77 1.942 2.224 1.714 3.401-.269 1.385-1.26 2.522-2.543 2.919-.698.215-1.211.213-1.853-.007zM52.505 57.177a6.722 6.722 0 0 1-.993-.549c-.913-.62-1.264-1.177-1.415-2.242-.292-2.064.782-3.577 2.884-4.065.71-.164 1.175-.082 2.01.357.722.38 1.286.97 1.642 1.722.253.534.272.639.27 1.472-.001.788-.029.956-.227 1.382-.437.938-1.125 1.504-2.316 1.904-.793.266-1.245.27-1.855.02zM60.937 37.202c-1.729-.252-2.946-2.04-2.64-3.88.266-1.611 1.29-2.667 2.869-2.958 1.459-.268 3.045.63 3.753 2.125.252.53.274.647.273 1.432 0 .77-.024.9-.242 1.314-.294.56-.912 1.236-1.378 1.506-.686.398-1.771.588-2.635.461zM52.533 17.227c-.584-.216-1.082-.568-1.635-1.154-.686-.725-.823-1.097-.824-2.231-.001-.842.023-.992.227-1.432.269-.577.973-1.353 1.519-1.674.366-.215.445-.227 1.54-.227 1.38 0 1.596.085 2.486.975.921.92 1.29 1.863 1.1 2.804-.233 1.153-1.147 2.393-2.092 2.84-.597.283-1.7.33-2.321.1z"/><path style="fill:#93ad18;fill-opacity:1;stroke-width:.0854429" d="M35.886 41.895c-.76-.15-1.064-.162-2.734-.111l-2.355.07-.476.013-2.27-2.31-2.272-2.308-.056-3.373-.056-3.373.854-.63c1.11-.822 2.183-1.895 2.944-2.948l.61-.843 3.376.058 3.375.058 2.328 2.323 2.329 2.323v6.594l-.884.697c-1.013.8-2.314 2.113-3.169 3.198-.324.411-.612.744-.64.74a158.7 158.7 0 0 1-.904-.178z"/></svg>